#!OML:ASF Z:\Project 1\Capture day 1\Session 1\Male1.ASF
:FULLY-SPECIFIED
:DEGREES
1292
root 12.6983 16.4962 -3.67185 -175.046 -16.1583 179.625
lowerback -4.13369 -3.03392 1.61618
upperback 2.76314 -4.46925 3.28624
thorax 5.32805 -2.28388 2.10915
lowerneck -14.0423 1.12517 1.33237
upperneck 7.90761 0.372655 6.14359
head 4.65956 0.550514 1.7204
rclavicle 6.36111e-014 -3.02153e-014
rhumerus -81.2559 -13.1203 -29.9558
rradius 4.87362
rwrist 43.7696
rhand -12.2689 16.1242
rfingers 7.12502
rthumb 13.7979 -13.3982
lclavicle 6.36111e-014 -3.02153e-014
lhumerus 72.3113 164.253 116.654
lradius 11.0956
lwrist -111.926
lhand -13.7284 55.0835
lfingers 7.12502
lthumb 12.3909 444.696
rfemur -2.63073 -5.4778 24.3054
rtibia 10.9357
rfoot -8.76994 -14.3261
rtoes 2.11379
lfemur -13.9473 -1.7787 -13.7335
ltibia 56.8535
lfoot 10.7539 9.68332
ltoes 53.3086
1293
root 12.6794 16.4887 -3.65899 -175.185 -16.0331 179.556
lowerback -3.98069 -2.99831 1.4849
upperback 2.84574 -4.42341 3.36286
thorax 5.34261 -2.27163 2.27184
lowerneck -14.4239 1.09547 1.26929
upperneck 8.34047 0.361133 5.84507
head 4.85564 0.547523 1.64431
rclavicle 3.67752e-014 1.74931e-014
rhumerus -81.5336 -12.8053 -29.2112
rradius 5.06117
rwrist 42.9442
rhand -11.4134 15.2657
rfingers 7.12502
rthumb 14.6223 -14.1988
lclavicle 3.67752e-014 1.74931e-014
lhumerus 72.6485 164.423 116.979
lradius 11.1317
lwrist -110.143
lhand -13.5623 55.1957
lfingers 7.12502
lthumb 12.5511 444.799
rfemur -2.61635 -5.72415 24.1526
rtibia 11.1619
rfoot -8.33629 -14.2834
rtoes -0.911733
lfemur -13.8199 -1.83206 -13.8237
ltibia 56.9669
lfoot 9.5965 9.10084
ltoes 52.4143
1294
root 12.6614 16.4763 -3.6466 -175.374 -15.9 179.528
lowerback -3.80028 -2.92606 1.46787
upperback 2.91889 -4.32504 3.34907
thorax 5.31322 -2.2254 2.28348
lowerneck -14.6032 0.98424 1.35322
upperneck 8.52049 0.207239 5.66848
head 4.94481 0.472518 1.56603
rclavicle -1.53064e-014 -2.38542e-014
rhumerus -81.8216 -12.7446 -28.5488
rradius 5.14452
rwrist 42.3783
rhand -10.4945 14.4973
rfingers 7.12502
rthumb 15.5074 -14.9008
lclavicle -1.53064e-014 -2.38542e-014
lhumerus 73.2142 164.318 117.852
lradius 11.133
lwrist -107.823
lhand -13.3622 55.3864
lfingers 7.12502
lthumb 12.744 444.977
rfemur -2.59635 -5.96209 24.0608
rtibia 11.4424
rfoot -8.0204 -14.3481
rtoes -4.3181
lfemur -13.5966 -1.87864 -13.8605
ltibia 57.0361
lfoot 8.07033 8.58702
ltoes 51.6846
1295
root 12.6489 16.4774 -3.63651 -175.53 -15.7531 179.554
lowerback -3.61516 -2.85311 1.53146
upperback 2.95343 -4.21799 3.24833
thorax 5.22728 -2.1674 2.16178
lowerneck -14.4924 0.886445 1.86595
upperneck 8.38762 0.0176976 5.37873
head 4.89045 0.370914 1.37493
rclavicle 1.27222e-014 -8.34896e-014
rhumerus -82.1095 -12.633 -27.9431
rradius 5.25447
rwrist 42.2356
rhand -9.53205 13.9985
rfingers 7.12502
rthumb 16.4342 -15.3253
lclavicle 1.27222e-014 -8.34896e-014
lhumerus 74.0126 164.043 119.336
lradius 11.0753
lwrist -104.842
lhand -13.247 55.4998
lfingers 7.12502
lthumb 12.8551 445.084
rfemur -2.56463 -5.47792 23.9479
rtibia 11.7362
rfoot -8.75958 -14.3348
rtoes -0.657982
lfemur -13.4206 -1.741 -13.7813
ltibia 57.0479
lfoot 6.4117 7.93657
ltoes 50.6903
1296
root 12.6401 16.4815 -3.62287 -175.499 -15.6694 179.455
lowerback -3.55658 -2.85147 1.34873
upperback 2.99034 -4.19806 3.18943
thorax 5.24008 -2.1617 2.20631
lowerneck -14.6593 0.905046 2.13368
upperneck 8.54187 0.00585949 5.14469
head 4.96605 0.36561 1.25998
rclavicle 3.69739e-014 -1.90833e-014
rhumerus -82.056 -12.5673 -27.2637
rradius 5.33278
rwrist 42.3249
rhand -8.46158 13.8006
rfingers 7.12502
rthumb 17.4647 -15.4349
lclavicle 3.69739e-014 -1.90833e-014
lhumerus 74.3052 163.929 120.293
lradius 11.141
lwrist -102.563
lhand -13.2794 55.391
lfingers 7.12502
lthumb 12.8239 444.977
rfemur -2.72306 -5.15998 23.7759
rtibia 11.9993
rfoot -9.38391 -14.4287
rtoes 2.85376
lfemur -13.5007 -1.6897 -13.8196
ltibia 57.0377
lfoot 4.97058 7.28291
ltoes 49.779
1297
root 12.6284 16.4884 -3.60969 -175.41 -15.5946 179.366
lowerback -3.62524 -2.92725 1.24098
upperback 3.07654 -4.29275 3.11103
thorax 5.37432 -2.20958 2.17112
lowerneck -14.9373 1.04218 2.40596
upperneck 8.74345 0.143092 4.91291
head 5.07245 0.435907 1.15877
rclavicle -2.72335e-014 3.18055e-015
rhumerus -81.6839 -12.7011 -26.8088
rradius 5.40461
rwrist 42.3943
rhand -7.43337 13.5576
rfingers 7.12502
rthumb 18.454 -15.587
lclavicle -2.72335e-014 3.18055e-015
lhumerus 73.9956 164.002 120.202
lradius 11.2742
lwrist -101.303
lhand -13.2565 55.2556
lfingers 7.12502
lthumb 12.846 444.84
rfemur -2.81874 -4.97703 23.6163
rtibia 11.9892
rfoot -9.75025 -14.4005
rtoes 5.33409
lfemur -13.6481 -1.67868 -13.8715
ltibia 57.0483
lfoot 3.66644 6.6849
ltoes 48.4804
1298
root 12.615 16.5035 -3.59851 -175.386 -15.5013 179.373
lowerback -3.63445 -2.97647 1.207
upperback 3.13293 -4.35962 3.09233
thorax 5.44213 -2.24406 2.16287
lowerneck -14.9471 1.08461 2.09235
upperneck 8.62183 0.192644 5.40951
head 5.03562 0.474824 1.36788
rclavicle 1.82882e-014 1.74931e-014
rhumerus -81.3954 -12.906 -26.3749
rradius 5.59525
rwrist 42.4889
rhand -6.88558 13.1995
rfingers 7.12502
rthumb 18.9809 -15.8944
lclavicle 1.82882e-014 1.74931e-014
lhumerus 73.7292 163.956 120.162
lradius 11.2814
lwrist -100.237
lhand -13.0903 55.4125
lfingers 7.12502
lthumb 13.0061 444.987
rfemur -2.88607 -4.52723 23.4995
rtibia 12.0629
rfoot -10.3379 -14.245
rtoes 9.29477
lfemur -13.7344 -1.56096 -13.815
ltibia 57.0241
lfoot 2.39239 6.16988
ltoes 45.6554
1299
root 12.6028 16.4962 -3.57837 -175.386 -15.4655 179.447
lowerback -3.53451 -2.92766 1.1059
upperback 3.12853 -4.29652 3.20138
thorax 5.3948 -2.22213 2.34313
lowerneck -15.0399 0.926624 1.5326
upperneck 8.64938 0.0278043 5.87286
head 5.06254 0.407324 1.59008
rclavicle -1.09332e-014 -2.06736e-014
rhumerus -81.262 -13.3409 -25.6204
rradius 5.69611
rwrist 42.9462
rhand -6.88061 13.0365
rfingers 7.12502
rthumb 18.9856 -16.0569
lclavicle -1.09332e-014 -2.06736e-014
lhumerus 73.6301 163.611 120.64
lradius 11.2417
lwrist -99.1878
lhand -12.9751 55.7493
lfingers 7.12502
lthumb 13.1172 445.317
rfemur -2.85987 -4.91229 23.6095
rtibia 11.7799
rfoot -9.17371 -14.5266
rtoes 3.00701
lfemur -13.9565 -1.54281 -13.6278
ltibia 57.1875
lfoot 0.953111 5.7346
ltoes 44.0217
1300
root 12.5938 16.5095 -3.56177 -175.311 -15.4358 179.533
lowerback -3.54947 -2.85786 1.11512
upperback 3.16795 -4.20605 3.19222
thorax 5.43991 -2.17706 2.33432
lowerneck -15.2711 0.759995 1.32649
upperneck 8.58299 -0.213313 6.21876
head 5.08706 0.303257 1.71208
rclavicle 1.78906e-015 2.94201e-014
rhumerus -81.0896 -13.903 -24.8544
rradius 5.7268
rwrist 44.0207
rhand -6.817 13.4212
rfingers 7.12502
rthumb 19.0468 -15.6662
lclavicle 1.78906e-015 2.94201e-014
lhumerus 73.4953 163.018 121.387
lradius 11.2747
lwrist -97.7297
lhand -13.0463 55.8566
lfingers 7.12502
lthumb 13.0486 445.428
rfemur -2.96598 -4.53028 23.5968
rtibia 11.7393
rfoot -9.89702 -14.192
rtoes 8.32373
lfemur -14.0953 -1.52883 -13.3942
ltibia 57.1721
lfoot -0.507929 5.36387
ltoes 45.8932
1301
root 12.5812 16.4779 -3.53616 -175.241 -15.4304 179.7
lowerback -3.6543 -2.83465 1.29459
upperback 3.26501 -4.18807 3.10018
thorax 5.581 -2.1584 2.13239
lowerneck -15.2992 0.703259 1.55219
upperneck 8.24639 -0.343566 6.3019
head 4.99101 0.237524 1.68762
rclavicle 5.34731e-014 1.66979e-014
rhumerus -80.8285 -14.4906 -24.2741
rradius 5.85068
rwrist 45.3126
rhand -6.58749 14.0092
rfingers 7.12502
rthumb 19.2675 -15.0563
lclavicle 5.34731e-014 1.66979e-014
lhumerus 73.1861 162.388 122.032
lradius 11.3672
lwrist -96.2928
lhand -12.9561 55.7875
lfingers 7.12502
lthumb 13.1355 445.354
rfemur -3.36357 -6.28945 24.0287
rtibia 11.6263
rfoot -6.78331 -14.5595
rtoes -10.8992
lfemur -14.4277 -1.40032 -13.1031
ltibia 57.3302
lfoot -1.73542 5.09264
ltoes 52.0224
1302
root 12.5697 16.5088 -3.522 -175.235 -15.509 179.791
lowerback -3.59971 -2.87012 1.45432
upperback 3.28797 -4.23904 3.02517
thorax 5.55797 -2.17517 1.96365
lowerneck -15.0904 0.622861 1.48981
upperneck 7.87427 -0.460333 6.59918
head 4.8462 0.177349 1.77616
rclavicle 5.06901e-014 -2.94201e-014
rhumerus -80.5156 -15.4207 -23.9452
rradius 5.91676
rwrist 46.486
rhand -6.47832 14.1885
rfingers 7.12502
rthumb 19.3725 -14.8665
lclavicle 5.06901e-014 -2.94201e-014
lhumerus 72.7053 161.992 122.133
lradius 11.4116
lwrist -95.8535
lhand -13.052 55.5805
lfingers 7.12502
lthumb 13.0431 445.153
rfemur -3.30931 -4.44235 23.796
rtibia 11.8384
rfoot -9.28476 -14.3594
rtoes 5.99975
lfemur -14.5561 -1.45656 -12.9654
ltibia 57.1699
lfoot -2.51538 4.63414
ltoes 46.0015
